<?xml version="1.0" encoding="UTF-8"?>
<!DOCTYPE svg PUBLIC "-//W3C//DTD SVG 1.1//EN" "http://www.w3.org/Graphics/SVG/1.1/DTD/svg11.dtd">
<!-- Creator: CorelDRAW -->
<svg xmlns="http://www.w3.org/2000/svg" xml:space="preserve" width="10.6496mm" height="10.6496mm" version="1.1" style="shape-rendering:geometricPrecision; text-rendering:geometricPrecision; image-rendering:optimizeQuality; fill-rule:evenodd; clip-rule:evenodd"
viewBox="0 0 2063.42 2063.42"
 xmlns:xlink="http://www.w3.org/1999/xlink"
 xmlns:xodm="http://www.corel.com/coreldraw/odm/2003">
 <defs>
  <style type="text/css">
   <![CDATA[
    .str0 {stroke:#BB67FC;stroke-width:12.81;stroke-miterlimit:22.9256}
    .fil0 {fill:#BB67FC;fill-opacity:0.149020}
    .fil2 {fill:url(#id0)}
    .fil1 {fill:url(#id1)}
   ]]>
  </style>
  <linearGradient id="id0" gradientUnits="userSpaceOnUse" x1="108.95" y1="6.43" x2="1851.94" y2="1954.47">
   <stop offset="0" style="stop-opacity:1; stop-color:#BB67FC"/>
   <stop offset="0.258824" style="stop-opacity:1; stop-color:#BB67FC"/>
   <stop offset="1" style="stop-opacity:1; stop-color:#BB67FC"/>
  </linearGradient>
  <linearGradient id="id1" gradientUnits="userSpaceOnUse" xlink:href="#id0" x1="1444.22" y1="1444.24" x2="1800.9" y2="1800.92">
  </linearGradient>
 </defs>
 <g id="Layer_x0020_1">
  <metadata id="CorelCorpID_0Corel-Layer"/>
  <g id="_105553364411712">
   <path class="fil0" d="M2038.43 970.91c-11.24,-4.67 -24.18,-2.09 -32.8,6.55l-90.14 90.43 0 -614.87c0,-16.68 -13.49,-30.21 -30.11,-30.21l-231.25 0 83.94 -84.21 0.04 -0.04 80.89 -81.14c17.32,-17.38 26.87,-40.51 26.87,-65.1 0,-24.59 -9.55,-47.72 -26.87,-65.1l-93.53 -93.84c-17.34,-17.4 -40.4,-26.97 -64.91,-26.97 -24.51,0 -47.55,9.57 -64.89,26.97l-80.93 81.18 -97.79 98.1 -209.47 210.15 -934.25 0 0 -298.71c0,-16.68 -13.47,-30.19 -30.09,-30.19 -130.53,0 -236.73,106.53 -236.73,237.49l0 1282.47c0,2.23 0.27,4.4 0.72,6.49 4.17,55.57 28.11,107.19 68.16,146.38 42.82,41.87 99.32,64.95 159.11,64.95l919.72 0 -173.22 173.78c-8.6,8.62 -11.18,21.6 -6.53,32.9 4.67,11.28 15.64,18.64 27.82,18.64l1024.72 0c16.6,0 30.09,-13.52 30.09,-30.21l0 -1027.99c0,-12.21 -7.34,-23.23 -18.58,-27.9zm-400.18 -894.82c12.3,-12.36 32.36,-12.36 44.66,0l93.55 93.84c12.3,12.34 12.3,32.45 0,44.8l-59.66 59.83 -138.19 -138.63 59.64 -59.83zm-102.21 102.54l138.19 138.63 -55.22 55.41 -138.19 -138.65 55.22 -55.39zm-637.79 892.05l-86.2 30.54 -57.45 -57.62 30.44 -86.49 113.21 113.58zm893.68 431.17l-290.09 290.09c-3.24,3.24 -0.95,8.76 3.62,8.76l295.23 0 0 -295.23c0,-4.57 -5.52,-6.86 -8.76,-3.62zm-1016.54 -598.3l179.42 179.44 666.44 -666.44 -179.42 -179.42 -666.44 666.42z"/>
   <path class="fil1 str0" d="M1821.17 1454.89c-11.24,-4.67 -24.18,-2.09 -32.78,6.55l-328.92 329.97c-8.62,8.64 -11.2,21.62 -6.53,32.92 4.65,11.28 15.64,18.64 27.8,18.64l328.92 0c16.62,0 30.09,-13.52 30.09,-30.21l0 -329.97c0,-12.21 -7.32,-23.23 -18.58,-27.9zm-267.77 327.68l226.15 -226.89 0 226.89 -226.15 0z"/>
   <path class="fil2 str0" d="M2038.43 970.91c-11.24,-4.67 -24.18,-2.09 -32.8,6.55l-90.14 90.43 0 -614.87c0,-16.68 -13.49,-30.21 -30.11,-30.21l-231.25 0 83.94 -84.21c0.02,-0.02 0.04,-0.04 0.04,-0.04l80.89 -81.14c17.32,-17.38 26.87,-40.51 26.87,-65.1 0,-24.59 -9.55,-47.72 -26.87,-65.1l-93.53 -93.84c-17.34,-17.4 -40.4,-26.97 -64.91,-26.97 -24.51,0 -47.55,9.57 -64.89,26.97l-80.93 81.18 -97.79 98.1 -209.47 210.15 -934.25 0 0 -298.71c0,-16.68 -13.47,-30.19 -30.09,-30.19 -130.53,0 -236.73,106.53 -236.73,237.49l0 1282.47c0,2.23 0.27,4.4 0.72,6.49 4.17,55.57 28.11,107.19 68.16,146.38 42.82,41.87 99.32,64.95 159.11,64.95l919.72 0 -173.22 173.78c-8.6,8.62 -11.18,21.6 -6.53,32.9 4.67,11.28 15.64,18.64 27.82,18.64l1024.72 0c16.6,0 30.09,-13.52 30.09,-30.21l0 -1027.99c0,-12.21 -7.34,-23.23 -18.58,-27.9zm-400.18 -894.82c12.3,-12.36 32.36,-12.36 44.66,0l93.55 93.84c12.3,12.34 12.3,32.45 0,44.8l-59.66 59.83 -138.19 -138.63 59.64 -59.83zm-102.21 102.54l138.19 138.63 -55.22 55.41 -138.19 -138.65 55.22 -55.39zm460.77 1159.47l-55.53 0c-16.62,0 -30.09,13.5 -30.09,30.19 0,16.68 13.47,30.19 30.09,30.19l55.53 0 0 90.99 -55.53 0c-16.62,0 -30.09,13.52 -30.09,30.21 0,16.68 13.47,30.19 30.09,30.19l55.53 0 0 90.99 -55.53 0c-16.62,0 -30.09,13.52 -30.09,30.21 0,16.66 13.47,30.19 30.09,30.19l55.53 0 0 90.99 -55.53 0c-16.62,0 -30.09,13.52 -30.09,30.21 0,16.68 13.47,30.19 30.09,30.19l55.53 0 0 144 -921.95 0 304 -304.97c11.76,-11.8 11.76,-30.92 0,-42.7 -1.34,-1.36 -2.79,-2.54 -4.3,-3.58 -11.72,-8.04 -27.84,-6.86 -38.27,3.58l-121.97 122.36 -979.9 0c-91.3,0 -164.77,-71.48 -167.66,-162.89 0.16,-5.75 0.6,-11.43 1.32,-17.05 0,-0.04 0.02,-0.08 0.02,-0.12 0.33,-2.65 0.74,-5.33 1.2,-7.96 0.06,-0.31 0.1,-0.6 0.16,-0.91 0.43,-2.34 0.89,-4.71 1.41,-7.03 0.14,-0.66 0.29,-1.32 0.45,-1.96 0.47,-1.98 0.95,-3.93 1.47,-5.89 0.29,-1.07 0.6,-2.11 0.91,-3.18 0.43,-1.53 0.89,-3.06 1.38,-4.57 0.48,-1.51 1.01,-3.02 1.53,-4.51 0.35,-1.05 0.72,-2.09 1.1,-3.14 0.74,-1.98 1.51,-3.93 2.33,-5.87 0.21,-0.56 0.45,-1.12 0.68,-1.69 1.03,-2.42 2.09,-4.79 3.24,-7.15 0.04,-0.1 0.08,-0.19 0.14,-0.29 23.54,-48.88 68.82,-85.33 123.15,-96.63 0.16,-0.04 0.31,-0.08 0.47,-0.12 2.48,-0.5 5,-0.93 7.54,-1.34 0.41,-0.08 0.83,-0.16 1.26,-0.21 2.29,-0.35 4.61,-0.64 6.92,-0.89 0.64,-0.08 1.3,-0.17 1.94,-0.23 2.23,-0.23 4.5,-0.37 6.74,-0.52 0.72,-0.04 1.41,-0.12 2.13,-0.16 2.95,-0.16 5.93,-0.21 8.91,-0.21 16.62,0 30.09,-13.52 30.09,-30.21l0 -218.92c0,-16.68 -13.47,-30.21 -30.09,-30.21 -16.62,0 -30.11,13.52 -30.11,30.21l0 190.64c-50.82,6.45 -98,29.18 -135.18,65.63 -3.91,3.84 -7.63,7.83 -11.24,11.88l0 -1124.38c0,-87.36 63.38,-160.14 146.42,-174.52l0 909.99c0,16.66 13.49,30.19 30.09,30.19 16.62,0 30.11,-13.52 30.11,-30.19l0 -583.67 874.07 0 -166.4 166.92c-11.76,11.8 -11.76,30.92 0,42.7 11.76,11.8 30.81,11.8 42.57,0l217.76 -218.46c0,0 0.02,-0.02 0.02,-0.02l196.99 -197.63 138.19 138.65 -16.22 16.26c-0.02,0.02 -0.02,0.02 -0.04,0.04l-606.88 608.84 -138.19 -138.63 119.62 -120.01c11.76,-11.8 11.76,-30.9 0,-42.7 -11.76,-11.78 -30.81,-11.78 -42.57,0l-140.9 141.36c-0.76,0.76 -1.45,1.55 -2.13,2.36 -0.21,0.27 -0.41,0.58 -0.62,0.85 -0.43,0.56 -0.83,1.14 -1.22,1.72 -0.23,0.35 -0.43,0.72 -0.64,1.07 -0.33,0.56 -0.64,1.14 -0.95,1.72 -0.17,0.37 -0.35,0.76 -0.52,1.14 -0.27,0.6 -0.52,1.2 -0.76,1.8 -0.08,0.21 -0.19,0.41 -0.25,0.62l-58.65 166.65 -39.97 113.62c-0.52,1.51 -0.91,3.06 -1.2,4.59l-100.09 0c-16.6,0 -30.09,13.52 -30.09,30.21 0,16.68 13.49,30.19 30.09,30.19l833.52 0c16.62,0 30.09,-13.5 30.09,-30.19 0,-16.68 -13.47,-30.21 -30.09,-30.21l-598.01 0 183.54 -65.01c0.16,-0.04 0.31,-0.12 0.45,-0.17 0.72,-0.27 1.41,-0.58 2.11,-0.89 0.27,-0.12 0.56,-0.25 0.83,-0.39 0.72,-0.35 1.41,-0.76 2.11,-1.18 0.23,-0.14 0.47,-0.25 0.68,-0.39 0.74,-0.47 1.43,-0.99 2.13,-1.53 0.17,-0.12 0.35,-0.23 0.52,-0.39 0.83,-0.66 1.65,-1.4 2.42,-2.17l619.36 -621.36 261.36 0 0 645.07 -430.53 431.92c-11.76,11.8 -11.76,30.9 0,42.7 0.72,0.74 1.49,1.41 2.29,2.07 5.52,4.51 12.25,6.76 18.99,6.76 6.74,0 13.49,-2.25 18.99,-6.76 0.79,-0.66 1.57,-1.34 2.29,-2.07l0.02 -0.02 529.48 -531.2 0 266.41zm-1098.56 -267.42l-86.2 30.54 -57.45 -57.62 30.44 -86.49 113.21 113.58z"/>
  </g>
 </g>
</svg>
