<?xml version="1.0" encoding="UTF-8"?>
<!DOCTYPE svg PUBLIC "-//W3C//DTD SVG 1.1//EN" "http://www.w3.org/Graphics/SVG/1.1/DTD/svg11.dtd">
<!-- Creator: CorelDRAW -->
<svg xmlns="http://www.w3.org/2000/svg" xml:space="preserve" width="10.6496mm" height="8.0566mm" version="1.1" style="shape-rendering:geometricPrecision; text-rendering:geometricPrecision; image-rendering:optimizeQuality; fill-rule:evenodd; clip-rule:evenodd"
viewBox="0 0 105.43 79.76"
 xmlns:xlink="http://www.w3.org/1999/xlink"
 xmlns:xodm="http://www.corel.com/coreldraw/odm/2003">
 <defs>
  <style type="text/css">
   <![CDATA[
    .str0 {stroke:#BB67FC;stroke-width:0.65;stroke-miterlimit:22.9256}
    .fil1 {fill:url(#id0)}
    .fil4 {fill:url(#id1)}
    .fil3 {fill:url(#id2)}
    .fil2 {fill:url(#id3)}
    .fil0 {fill:url(#id4);fill-opacity:0.149020}
   ]]>
  </style>
  <linearGradient id="id0" gradientUnits="userSpaceOnUse" x1="0.33" y1="45.12" x2="2.95" y2="47.74">
   <stop offset="0" style="stop-opacity:1; stop-color:#BB67FC"/>
   <stop offset="0.258824" style="stop-opacity:1; stop-color:#BB67FC"/>
   <stop offset="1" style="stop-opacity:1; stop-color:#BB67FC"/>
  </linearGradient>
  <linearGradient id="id1" gradientUnits="userSpaceOnUse" xlink:href="#id0" x1="39.62" y1="34.64" x2="63.19" y2="60.83">
  </linearGradient>
  <linearGradient id="id2" gradientUnits="userSpaceOnUse" xlink:href="#id0" x1="34.38" y1="29.4" x2="68.43" y2="68.69">
  </linearGradient>
  <linearGradient id="id3" gradientUnits="userSpaceOnUse" xlink:href="#id0" x1="5.57" y1="-2.03" x2="68.43" y2="92.26">
  </linearGradient>
  <linearGradient id="id4" gradientUnits="userSpaceOnUse" xlink:href="#id0" x1="5.57" y1="8.45" x2="55.33" y2="94.88">
  </linearGradient>
 </defs>
 <g id="Layer_x0020_1">
  <metadata id="CorelCorpID_0Corel-Layer"/>
  <g id="_105553364410720">
   <path class="fil0" d="M1.64 16.04c0,-2.89 2.35,-5.24 5.24,-5.24l91.15 0c2.89,0 5.24,2.35 5.24,5.24l0 54.98c0,2.89 -2.35,5.24 -5.24,5.24l-36.9 0c11.08,-3.55 19.09,-13.93 19.09,-26.18 0,-15.18 -12.31,-27.49 -27.5,-27.49 -15.19,0 -27.5,12.31 -27.5,27.49 0,12.25 8.02,22.63 19.09,26.18l-37.43 0c-2.89,0 -5.24,-2.35 -5.24,-5.24l0 -54.98zm51.08 47.12c7.23,0 13.1,-5.86 13.1,-13.09 0,-7.23 -5.86,-13.09 -13.1,-13.09 -7.23,0 -13.1,5.86 -13.1,13.09 0,7.23 5.86,13.09 13.1,13.09z"/>
   <path class="fil1 str0" d="M3.07 54.46c0,0.67 -0.54,1.21 -1.21,1.21 -0.67,0 -1.21,-0.54 -1.21,-1.21l0 -6.2c0,-0.67 0.54,-1.21 1.21,-1.21 0.67,0 1.21,0.54 1.21,1.21l0 6.2z"/>
   <path class="fil2 str0" d="M99.19 10.34l-6.36 0 0 -0.72c0,-2.05 -1.67,-3.72 -3.72,-3.72l-0.65 0 0 -1.85c0,-2.05 -1.67,-3.72 -3.72,-3.72l-7.33 0c-2.05,0 -3.72,1.67 -3.72,3.72l0 1.85 -0.65 0c-2.05,0 -3.72,1.67 -3.72,3.72l0 0.72 -21.85 0 0 -1.6c0,-2.05 -1.67,-3.72 -3.72,-3.72l-2.96 0c-2.05,0 -3.72,1.67 -3.72,3.72l0 1.6 -3.59 0 0 -3.78c0,-2.05 -1.67,-3.72 -3.72,-3.72l-16.08 0c-2.05,0 -3.72,1.67 -3.72,3.72l0 3.78 -3.73 0c-3.26,0 -5.91,2.65 -5.91,5.9l0 25.32c0,0.85 0.69,1.53 1.54,1.53 0.85,0 1.53,-0.69 1.53,-1.53l0 -14.57 8.4 0c0.68,2.47 2.94,4.29 5.62,4.29 2.69,0 4.95,-1.82 5.63,-4.29l12.19 0c-7.08,5.32 -11.67,13.78 -11.67,23.3 0,6.25 1.98,12.04 5.34,16.79l-25.51 0 0 -5.95c0,-0.85 -0.69,-1.53 -1.53,-1.53 -0.85,0 -1.54,0.69 -1.54,1.53l0 9.6c0,3.26 2.65,5.9 5.91,5.9l34.03 0c3.78,1.79 7.99,2.79 12.44,2.79 4.45,0 8.67,-1 12.45,-2.79 0.01,0 0.02,0 0.03,0l34 0c3.26,0 5.91,-2.65 5.91,-5.9l0 -54.49c0,-3.25 -2.65,-5.9 -5.91,-5.9zm-22.43 -6.3c0,-0.36 0.29,-0.65 0.65,-0.65l7.33 0c0.36,0 0.65,0.29 0.65,0.65l0 1.85 -8.63 0 0 -1.85 -0 0zm-4.37 5.57c0,-0.36 0.29,-0.65 0.65,-0.65l16.08 0c0.36,0 0.65,0.29 0.65,0.65l0 0.72 -17.38 0 0 -0.72 -0 0zm-32.25 -0.87c0,-0.36 0.29,-0.65 0.65,-0.65l2.96 0c0.36,0 0.65,0.29 0.65,0.65l0 1.6 -4.26 0 0 -1.6zm-27.11 -2.19c0,-0.36 0.29,-0.65 0.65,-0.65l16.08 0c0.36,0 0.65,0.29 0.65,0.65l0 3.78 -17.38 0 0 -3.78zm4.39 21.67c-1.52,0 -2.76,-1.24 -2.76,-2.76 0,-1.52 1.24,-2.76 2.76,-2.76 1.52,0 2.76,1.24 2.76,2.76 0,1.52 -1.24,2.76 -2.76,2.76zm5.63 -4.3c-0.68,-2.47 -2.94,-4.3 -5.63,-4.3 -2.68,0 -4.95,1.82 -5.62,4.3l-8.4 0 0 -7.69c0,-1.56 1.27,-2.84 2.84,-2.84l92.96 0c1.56,0 2.84,1.27 2.84,2.84l0 7.69 -4.57 0 0 -5.57c0,-0.85 -0.69,-1.53 -1.53,-1.53l-14.28 0c-0.85,0 -1.53,0.69 -1.53,1.53l0 5.57 -15.02 0c-3.83,-1.8 -8.06,-2.76 -12.38,-2.76 -4.43,0 -8.62,0.99 -12.39,2.76l-17.28 0zm60.13 0l0 -4.04 11.21 0 0 4.04 -11.21 0zm-76.94 49.64c-1.56,0 -2.84,-1.27 -2.84,-2.84l0 -0.58 28.01 0c1.16,1.24 2.43,2.39 3.79,3.41l-28.97 0zm20.4 -23.27c0,-14.37 11.7,-26.06 26.07,-26.06 7.46,0 14.57,3.2 19.52,8.79 0.56,0.63 1.53,0.69 2.17,0.13 0.63,-0.56 0.69,-1.53 0.13,-2.17 -1.32,-1.48 -2.77,-2.82 -4.34,-3.99l31.83 0 0 40.08 -25.51 0c2.34,-3.31 4.01,-7.13 4.81,-11.26l4.02 0c2.26,0 4.11,-1.84 4.11,-4.1l0 -3.82c0,-2.26 -1.84,-4.1 -4.11,-4.1l-4.22 0c-0.56,-2.44 -1.42,-4.81 -2.59,-7.02 -0.39,-0.75 -1.32,-1.04 -2.07,-0.64 -0.75,0.39 -1.04,1.32 -0.65,2.07 1.95,3.7 2.97,7.89 2.97,12.1 0,14.37 -11.7,26.06 -26.07,26.06 -14.38,0 -26.07,-11.69 -26.07,-26.06zm55.01 -3.43l3.69 0c0.57,0 1.04,0.46 1.04,1.04l0 3.82c0,0.57 -0.47,1.04 -1.04,1.04l-3.59 0c0.07,-0.81 0.11,-1.63 0.11,-2.46 0,-1.15 -0.07,-2.29 -0.21,-3.43zm17.54 26.7l-28.97 0c1.36,-1.03 2.63,-2.17 3.79,-3.41l28.01 0 0 0.58c0,1.56 -1.27,2.84 -2.84,2.84z"/>
   <path class="fil3 str0" d="M32.39 50.3c0,-11.2 9.12,-20.31 20.32,-20.31 11.21,0 20.32,9.11 20.32,20.31 0,11.2 -9.12,20.31 -20.32,20.31 -11.21,0 -20.32,-9.11 -20.32,-20.31zm2.41 0c0,9.87 8.03,17.9 17.91,17.9 9.87,0 17.91,-8.03 17.91,-17.9 0,-9.87 -8.03,-17.9 -17.91,-17.9 -9.87,0 -17.91,8.03 -17.91,17.9z"/>
   <path class="fil4 str0" d="M38.62 50.3c0,-7.77 6.32,-14.09 14.09,-14.09 7.77,0 14.1,6.32 14.1,14.09 0,7.77 -6.32,14.09 -14.1,14.09 -7.77,0 -14.09,-6.32 -14.09,-14.09zm2.41 0c0,6.44 5.24,11.67 11.68,11.67 6.44,0 11.68,-5.24 11.68,-11.67 0,-6.44 -5.24,-11.67 -11.68,-11.67 -6.44,0 -11.68,5.24 -11.68,11.67z"/>
  </g>
 </g>
</svg>
