<?xml version="1.0" encoding="UTF-8"?>
<!DOCTYPE svg PUBLIC "-//W3C//DTD SVG 1.1//EN" "http://www.w3.org/Graphics/SVG/1.1/DTD/svg11.dtd">
<!-- Creator: CorelDRAW -->
<svg xmlns="http://www.w3.org/2000/svg" xml:space="preserve" width="10.4522mm" height="15.5639mm" version="1.1" style="shape-rendering:geometricPrecision; text-rendering:geometricPrecision; image-rendering:optimizeQuality; fill-rule:evenodd; clip-rule:evenodd"
viewBox="0 0 149.41 222.48"
 xmlns:xlink="http://www.w3.org/1999/xlink"
 xmlns:xodm="http://www.corel.com/coreldraw/odm/2003">
 <defs>
  <style type="text/css">
   <![CDATA[
    .fil0 {fill:none}
    .fil2 {fill:url(#id0)}
    .fil1 {fill:url(#id1);fill-opacity:0.149020}
   ]]>
  </style>
  <linearGradient id="id0" gradientUnits="userSpaceOnUse" x1="37.24" y1="25.09" x2="150.7" y2="89.38">
   <stop offset="0" style="stop-opacity:1; stop-color:#BB67FC"/>
   <stop offset="0.258824" style="stop-opacity:1; stop-color:#BB67FC"/>
   <stop offset="1" style="stop-opacity:1; stop-color:#BB67FC"/>
  </linearGradient>
  <linearGradient id="id1" gradientUnits="userSpaceOnUse" xlink:href="#id0" x1="41.02" y1="28.87" x2="146.92" y2="89.38">
  </linearGradient>
 </defs>
 <g id="Layer_x0020_1">
  <metadata id="CorelCorpID_0Corel-Layer"/>
  <g id="_105553364848992">
   <polygon class="fil0" points="149.41,222.48 -0,222.48 -0,0 149.41,0 "/>
   <g>
    <path class="fil1" d="M44.81 28.87c-4.18,0 -7.56,3.39 -7.56,7.56l0 128.59c0,4.18 3.39,7.56 7.56,7.56l60.14 0c4.18,0 7.56,-3.39 7.56,-7.56l0 -128.59c0,-4.18 -3.39,-7.56 -7.56,-7.56l-12.24 0 0 3.78 -35.65 0 0 -3.78 -12.24 0z"/>
    <path class="fil2" d="M65.64 160.01c-1.41,0 -2.56,1.15 -2.56,2.56 0,1.41 1.15,2.56 2.56,2.56l0 -5.12zm18.74 5.12c1.41,0 2.56,-1.15 2.56,-2.56 0,-1.41 -1.15,-2.56 -2.56,-2.56l0 5.12zm-49.41 -28.79c0,1.41 1.15,2.56 2.56,2.56 1.41,0 2.56,-1.15 2.56,-2.56l-5.12 0zm5.12 11.24c0,-1.41 -1.15,-2.56 -2.56,-2.56 -1.41,0 -2.56,1.15 -2.56,2.56l5.12 0zm69.84 -93.7c0,1.41 1.15,2.56 2.56,2.56 1.41,0 2.56,-1.15 2.56,-2.56l-5.12 0zm5.12 11.24c0,-1.41 -1.15,-2.56 -2.56,-2.56 -1.41,0 -2.56,1.15 -2.56,2.56l5.12 0zm-11.69 106.13l-56.69 0 0 5.12 56.69 0 0 -5.12zm-56.69 -141.05l11.48 0 0 -5.12 -11.48 0 0 5.12zm8.92 1.28l5.12 0 0 -3.84 -5.12 0 0 3.84zm6.21 6.21l26.42 0 0 -5.12 -26.42 0 0 5.12zm-3.66 -7.5l33.73 0 0 -5.12 -33.73 0 0 5.12zm33.73 0l11.48 0 0 -5.12 -11.48 0 0 5.12zm2.56 1.28l0 -3.84 -5.12 0 0 3.84 5.12 0zm-28.79 133.64l18.74 0 0 -5.12 -18.74 0 0 5.12zm-25.55 -28.79l0 -99.55 -5.12 0 0 99.55 5.12 0zm0 28.34l0 -17.1 -5.12 0 0 17.1 5.12 0zm69.84 -127.9l0 17.1 5.12 0 0 -17.1 -5.12 0zm0 28.34l0 99.55 5.12 0 0 -99.55 -5.12 0zm-21.71 -27.42c3.43,0 6.21,-2.78 6.21,-6.21l-5.12 0c0,0.61 -0.49,1.1 -1.1,1.1l0 5.12zm-41.55 133.56c-3.63,0 -6.58,-2.94 -6.58,-6.58l-5.12 0c0,6.46 5.24,11.69 11.69,11.69l0 -5.12zm56.69 5.12c6.46,0 11.69,-5.24 11.69,-11.69l-5.12 0c0,3.63 -2.94,6.58 -6.58,6.58l0 5.12zm0 -146.17c3.63,0 6.58,2.94 6.58,6.58l5.12 0c0,-6.46 -5.23,-11.69 -11.69,-11.69l0 5.12zm-47.77 1.28c0,3.43 2.78,6.21 6.21,6.21l0 -5.12c-0.61,0 -1.1,-0.49 -1.1,-1.1l-5.12 0zm-8.92 -6.4c-6.46,0 -11.69,5.24 -11.69,11.69l5.12 0c0,-3.63 2.94,-6.58 6.58,-6.58l0 -5.12z"/>
   </g>
  </g>
 </g>
</svg>
